<svg width="32" height="32" viewBox="0 0 32 32" fill="none" xmlns="http://www.w3.org/2000/svg">
<path d="M26.7075 25.2926C26.8004 25.3855 26.8741 25.4958 26.9244 25.6172C26.9747 25.7386 27.0006 25.8687 27.0006 26.0001C27.0006 26.1314 26.9747 26.2616 26.9244 26.3829C26.8741 26.5043 26.8004 26.6146 26.7075 26.7076C26.6146 26.8005 26.5043 26.8742 26.3829 26.9244C26.2615 26.9747 26.1314 27.0006 26 27.0006C25.8686 27.0006 25.7385 26.9747 25.6171 26.9244C25.4957 26.8742 25.3854 26.8005 25.2925 26.7076L16 17.4138L6.70751 26.7076C6.51987 26.8952 6.26537 27.0006 6.00001 27.0006C5.73464 27.0006 5.48015 26.8952 5.29251 26.7076C5.10487 26.5199 4.99945 26.2654 4.99945 26.0001C4.99945 25.7347 5.10487 25.4802 5.29251 25.2926L15.2925 15.2926C15.3854 15.1996 15.4957 15.1258 15.6171 15.0755C15.7385 15.0252 15.8686 14.9993 16 14.9993C16.1314 14.9993 16.2615 15.0252 16.3829 15.0755C16.5043 15.1258 16.6146 15.1996 16.7075 15.2926L26.7075 25.2926ZM6.70751 16.7076L16 7.4138L25.2925 16.7076C25.3854 16.8005 25.4957 16.8742 25.6171 16.9244C25.7385 16.9747 25.8686 17.0006 26 17.0006C26.1314 17.0006 26.2615 16.9747 26.3829 16.9244C26.5043 16.8742 26.6146 16.8005 26.7075 16.7076C26.8004 16.6146 26.8741 16.5043 26.9244 16.383C26.9747 16.2616 27.0006 16.1314 27.0006 16.0001C27.0006 15.8687 26.9747 15.7386 26.9244 15.6172C26.8741 15.4958 26.8004 15.3855 26.7075 15.2926L16.7075 5.29255C16.6146 5.19958 16.5043 5.12582 16.3829 5.07549C16.2615 5.02517 16.1314 4.99927 16 4.99927C15.8686 4.99927 15.7385 5.02517 15.6171 5.07549C15.4957 5.12582 15.3854 5.19958 15.2925 5.29255L5.29251 15.2926C5.10487 15.4802 4.99945 15.7347 4.99945 16.0001C4.99945 16.2654 5.10487 16.5199 5.29251 16.7076C5.48015 16.8952 5.73464 17.0006 6.00001 17.0006C6.26537 17.0006 6.51987 16.8952 6.70751 16.7076Z" fill="#343330"/>
</svg>
