<svg width="32" height="64" viewBox="0 0 32 64" fill="none" xmlns="http://www.w3.org/2000/svg">
<path d="M26 4H6C5.46957 4 4.96086 4.21071 4.58579 4.58579C4.21071 4.96086 4 5.46957 4 6V26C4 26.5304 4.21071 27.0391 4.58579 27.4142C4.96086 27.7893 5.46957 28 6 28H26C26.5304 28 27.0391 27.7893 27.4142 27.4142C27.7893 27.0391 28 26.5304 28 26V6C28 5.46957 27.7893 4.96086 27.4142 4.58579C27.0391 4.21071 26.5304 4 26 4ZM26 26H6V6H26V26ZM22 16C22 16.2652 21.8946 16.5196 21.7071 16.7071C21.5196 16.8946 21.2652 17 21 17H17V21C17 21.2652 16.8946 21.5196 16.7071 21.7071C16.5196 21.8946 16.2652 22 16 22C15.7348 22 15.4804 21.8946 15.2929 21.7071C15.1054 21.5196 15 21.2652 15 21V17H11C10.7348 17 10.4804 16.8946 10.2929 16.7071C10.1054 16.5196 10 16.2652 10 16C10 15.7348 10.1054 15.4804 10.2929 15.2929C10.4804 15.1054 10.7348 15 11 15H15V11C15 10.7348 15.1054 10.4804 15.2929 10.2929C15.4804 10.1054 15.7348 10 16 10C16.2652 10 16.5196 10.1054 16.7071 10.2929C16.8946 10.4804 17 10.7348 17 11V15H21C21.2652 15 21.5196 15.1054 21.7071 15.2929C21.8946 15.4804 22 15.7348 22 16Z" fill="#343330"/>
<path d="M26 36H6C5.46957 36 4.96086 36.2107 4.58579 36.5858C4.21071 36.9609 4 37.4696 4 38V58C4 58.5304 4.21071 59.0391 4.58579 59.4142C4.96086 59.7893 5.46957 60 6 60H26C26.5304 60 27.0391 59.7893 27.4142 59.4142C27.7893 59.0391 28 58.5304 28 58V38C28 37.4696 27.7893 36.9609 27.4142 36.5858C27.0391 36.2107 26.5304 36 26 36ZM26 58H6V38H26V58ZM22 48C22 48.2652 21.8946 48.5196 21.7071 48.7071C21.5196 48.8946 21.2652 49 21 49H11C10.7348 49 10.4804 48.8946 10.2929 48.7071C10.1054 48.5196 10 48.2652 10 48C10 47.7348 10.1054 47.4804 10.2929 47.2929C10.4804 47.1054 10.7348 47 11 47H21C21.2652 47 21.5196 47.1054 21.7071 47.2929C21.8946 47.4804 22 47.7348 22 48Z" fill="#343330"/>
</svg>
